HIERARCHY
ROOT Hips
{
	OFFSET 0.000000 0.000000 0.000000
	CHANNELS 6 Xposition Yposition Zposition Xrotation Yrotation Zrotation
	JOINT LeftUpLeg_virtual
	{
		OFFSET 0.000000 0.000000 0.000000
		CHANNELS 3 Xrotation Yrotation Zrotation
		JOINT LeftUpLeg
		{
			OFFSET 13.026900 -6.336304 -1.092800
			CHANNELS 3 Xrotation Yrotation Zrotation
			JOINT LeftLeg
			{
				OFFSET 0.524474 -46.096886 9.782700
				CHANNELS 3 Xrotation Yrotation Zrotation
				JOINT LeftFoot
				{
					OFFSET -0.524474 -53.427422 -12.948200
					CHANNELS 3 Xrotation Yrotation Zrotation
					JOINT LeftToeBase
					{
						OFFSET 0.192200 -14.009700 16.364100
						CHANNELS 3 Xrotation Yrotation Zrotation
						JOINT LeftToe_End
						{
							OFFSET -1.784700 -0.561700 9.474800
							CHANNELS 3 Xrotation Yrotation Zrotation
							End Site
							{
								OFFSET 0 0 0
							}
						}
					}
				}
			}
		}
	}
	JOINT RightUpLeg_virtual
	{
		OFFSET 0.000000 0.000000 0.000000
		CHANNELS 3 Xrotation Yrotation Zrotation
		JOINT RightUpLeg
		{
			OFFSET -12.883000 -6.336304 -1.092800
			CHANNELS 3 Xrotation Yrotation Zrotation
			JOINT RightLeg
			{
				OFFSET -0.524587 -46.096825 9.782800
				CHANNELS 3 Xrotation Yrotation Zrotation
				JOINT RightFoot
				{
					OFFSET 0.524587 -53.427383 -12.948300
					CHANNELS 3 Xrotation Yrotation Zrotation
					JOINT RightToeBase
					{
						OFFSET -0.192200 -14.009700 16.364100
						CHANNELS 3 Xrotation Yrotation Zrotation
						JOINT RightToe_End
						{
							OFFSET 1.784700 -0.561700 9.474800
							CHANNELS 3 Xrotation Yrotation Zrotation
							End Site
							{
								OFFSET 0 0 0
							}
						}
					}
				}
			}
		}
	}
	JOINT Spine_virtual
	{
		OFFSET 0.000000 0.000000 0.000000
		CHANNELS 3 Xrotation Yrotation Zrotation
		JOINT Spine
		{
			OFFSET 0.072000 7.257294 -0.789700
			CHANNELS 3 Xrotation Yrotation Zrotation
			JOINT Spine1
			{
				OFFSET 0.000000 12.508769 -0.658067
				CHANNELS 3 Xrotation Yrotation Zrotation
				JOINT Spine1_split
				{
					OFFSET 0.000000 12.508769 -0.658067
					CHANNELS 3 Xrotation Yrotation Zrotation
					JOINT Spine2
					{
						OFFSET 0.000000 12.508769 -0.658067
						CHANNELS 3 Xrotation Yrotation Zrotation
						JOINT Neck_virtual
						{
							OFFSET 0.000000 0.000000 0.000000
							CHANNELS 3 Xrotation Yrotation Zrotation
							JOINT Neck
							{
								OFFSET 0.000000 14.033295 7.520400
								CHANNELS 3 Xrotation Yrotation Zrotation
								JOINT Head
								{
									OFFSET 0.000000 8.198502 5.703100
									CHANNELS 3 Xrotation Yrotation Zrotation
									JOINT HeadTop_End
									{
										OFFSET 0.000000 17.760803 13.332701
										CHANNELS 3 Xrotation Yrotation Zrotation
										End Site
										{
											OFFSET 0 0 0
										}
									}
								}
							}
						}
						JOINT LeftShoulder_virtual
						{
							OFFSET 0.000000 0.000000 0.000000
							CHANNELS 3 Xrotation Yrotation Zrotation
							JOINT LeftShoulder
							{
								OFFSET 6.292450 5.785301 -0.669000
								CHANNELS 3 Xrotation Yrotation Zrotation
								JOINT LeftShoulder_split
								{
									OFFSET 6.292450 5.785301 -0.669000
									CHANNELS 3 Xrotation Yrotation Zrotation
									JOINT LeftArm
									{
										OFFSET 13.907140 -6.093903 1.965100
										CHANNELS 3 Xrotation Yrotation Zrotation
										JOINT LeftForeArm
										{
											OFFSET 34.140198 0.000000 0.000000
											CHANNELS 3 Xrotation Yrotation Zrotation
											JOINT LeftHand
											{
												OFFSET 40.960209 0.000000 0.000000
												CHANNELS 3 Xrotation Yrotation Zrotation
												End Site
												{
													OFFSET 0 0 0
												}
											}
										}
									}
								}
							}
						}
						JOINT RightShoulder_virtual
						{
							OFFSET 0.000000 0.000000 0.000000
							CHANNELS 3 Xrotation Yrotation Zrotation
							JOINT RightShoulder
							{
								OFFSET -6.292450 5.785301 -0.669000
								CHANNELS 3 Xrotation Yrotation Zrotation
								JOINT RightShoulder_split
								{
									OFFSET -6.292450 5.785301 -0.669000
									CHANNELS 3 Xrotation Yrotation Zrotation
									JOINT RightArm
									{
										OFFSET -13.907140 -6.093903 1.965100
										CHANNELS 3 Xrotation Yrotation Zrotation
										JOINT RightForeArm
										{
											OFFSET -34.140198 0.000000 0.000000
											CHANNELS 3 Xrotation Yrotation Zrotation
											JOINT RightHand
											{
												OFFSET -40.960209 0.000000 0.000000
												CHANNELS 3 Xrotation Yrotation Zrotation
												End Site
												{
													OFFSET 0 0 0
												}
											}
										}
									}
								}
							}
						}
					}
				}
			}
		}
	}
}
MOTION
Frames: 11
Frame Time: 0.03333333
-0.130265 95.847832 -4.129677 0.000000 0.000000 0.000000 -16.022492 2.721196 0.505572 -20.674481 -2.142145 15.522314 53.952265 0.285300 1.292267 -18.106203 -0.688957 -12.404566 -1.560777 -0.388115 -0.203600 0.000000 0.000000 0.000000 -16.580072 1.251657 0.498601 -15.321923 -3.049878 -16.107931 54.029528 1.539289 0.025950 -23.362828 -5.790701 13.177194 -0.424559 0.471122 0.286783 0.000000 0.000000 0.000000 -15.546912 0.480432 0.254683 19.007001 0.155358 2.695456 5.768436 0.027578 -0.240447 2.089343 5.316651 -0.358459 0.000000 0.000000 0.000000 6.026083 -0.173371 0.469585 -11.327267 -1.319645 2.536090 -17.279322 1.588884 -0.597684 0.000000 0.000000 0.000000 7.786925 -0.221375 0.739791 3.513745 -7.683119 -4.525323 -4.854131 -0.926297 -4.055894 -10.470268 -17.692133 -58.747263 70.274307 -61.693540 70.640501 0.000000 0.000000 0.000000 7.480353 -0.092274 -0.085787 9.986311 -5.706140 15.978157 3.662004 2.576215 -1.022366 -27.554817 11.972051 60.477930 88.822348 61.317566 -83.631964 0.000000 0.000000 0.000000 
-0.233980 95.870346 -3.909058 0.000000 0.000000 0.000000 -16.088459 2.815338 0.398340 -20.705747 -2.494505 15.577127 53.907463 0.266622 1.281447 -18.148333 -0.695286 -12.405225 -1.489362 -0.370499 -0.201361 0.000000 0.000000 0.000000 -16.656096 1.685164 0.464790 -14.988485 -2.998916 -16.010281 54.149166 1.548884 0.020580 -23.574869 -5.753717 12.998340 -0.194989 0.497113 0.263572 0.000000 0.000000 0.000000 -15.689950 0.919555 0.160039 18.928425 0.082231 2.658822 5.954906 0.045683 -0.166347 1.950745 5.479778 -0.126632 0.000000 0.000000 0.000000 6.100761 -0.201918 0.517610 -11.613256 -1.067944 2.104534 -17.454612 1.836919 -0.649662 0.000000 0.000000 0.000000 7.837555 -0.165746 0.817321 3.613852 -7.660431 -4.124803 -4.514384 -1.030279 -4.256921 -12.468511 -18.026541 -60.374467 67.878386 -61.279385 68.379619 0.000000 0.000000 0.000000 7.596563 -0.097059 -0.047993 9.812226 -5.967038 16.053810 3.774012 1.868431 0.637571 -27.103422 10.667652 60.823231 86.506477 62.410485 -81.689930 0.000000 0.000000 0.000000 
-0.376054 95.945374 -3.712879 0.000000 0.000000 0.000000 -16.342423 2.993474 0.339501 -20.683630 -2.914158 15.469381 53.972998 0.232107 1.315333 -18.293813 -0.653145 -12.535015 -1.369656 -0.321423 -0.240055 0.000000 0.000000 0.000000 -16.861265 2.129974 0.422061 -14.409985 -3.145347 -15.953445 54.155330 1.665727 -0.022948 -23.710568 -5.775768 13.026377 -0.279154 0.495832 0.241497 0.000000 0.000000 0.000000 -16.043257 1.519980 0.061284 19.046534 -0.090219 2.471245 6.319185 0.131446 -0.034612 1.759405 4.824574 0.051103 0.000000 0.000000 0.000000 6.378119 -0.120953 0.515610 -11.484019 -0.787688 1.251115 -17.989950 2.003450 -0.656240 0.000000 0.000000 0.000000 7.983703 -0.049247 0.899990 3.452158 -8.376292 -3.782376 -4.349197 -1.850791 -3.480373 -12.763303 -17.218707 -60.457686 61.504283 -61.972376 62.321460 0.000000 0.000000 0.000000 7.928229 0.008235 0.069915 9.392979 -6.053463 16.195367 2.367539 1.393203 1.101015 -25.071464 11.411504 59.735065 82.592130 65.741636 -78.784005 0.000000 0.000000 0.000000 
-0.501204 96.088493 -3.589668 0.000000 0.000000 0.000000 -16.753814 3.213170 0.358202 -20.525765 -3.264892 15.161406 54.088937 0.225342 1.402599 -18.464312 -0.548637 -12.690394 -1.267128 -0.253455 -0.310241 0.000000 0.000000 0.000000 -17.150067 2.468657 0.409363 -13.631524 -3.479223 -15.970746 54.003813 1.816183 -0.064197 -23.851060 -5.887015 13.081006 -0.527242 0.465957 0.248718 0.000000 0.000000 0.000000 -16.544544 2.024426 0.025907 19.298800 -0.350793 2.184538 6.775998 0.244369 0.083937 1.341918 3.620891 0.664109 0.000000 0.000000 0.000000 6.801337 -0.013834 0.465403 -10.761427 -0.486719 0.147975 -18.614876 2.178418 -0.738511 0.000000 0.000000 0.000000 8.185960 0.055696 0.949376 3.095744 -9.634100 -3.318912 -4.315277 -3.282798 -2.318694 -11.124247 -15.751036 -58.405433 53.235891 -63.932790 54.381488 0.000000 0.000000 0.000000 8.362944 0.128088 0.206365 8.846820 -5.941004 16.089957 0.039613 1.080631 0.788394 -20.844484 13.676230 56.500920 79.220844 71.056924 -76.603830 0.000000 0.000000 0.000000 
-0.576463 96.366119 -3.477261 0.000000 0.000000 0.000000 -17.295566 3.381182 0.489944 -20.157746 -3.460501 14.672450 54.050664 0.285899 1.514410 -18.561085 -0.395498 -12.752293 -1.243586 -0.184508 -0.384456 0.000000 0.000000 0.000000 -17.501525 2.719907 0.486494 -12.758465 -3.967194 -16.053359 53.603506 1.869579 -0.055397 -23.953417 -6.107154 12.941328 -0.641267 0.421952 0.297750 0.000000 0.000000 0.000000 -17.175243 2.334698 0.091199 19.553273 -0.710845 1.854406 7.211290 0.299884 0.148461 0.555273 2.469268 1.193242 0.000000 0.000000 0.000000 7.343446 0.001524 0.370821 -9.119049 -0.133861 -0.975271 -19.062402 2.364224 -0.921111 0.000000 0.000000 0.000000 8.417669 0.054448 0.962758 2.654639 -11.113466 -2.549241 -4.470142 -4.125390 -1.767925 -7.951313 -14.285207 -53.986515 43.976525 -67.247912 45.509786 0.000000 0.000000 0.000000 8.830465 0.127257 0.319641 8.243470 -5.707902 15.494371 -1.708922 1.093053 0.064764 -14.218289 16.126444 50.850885 76.039157 77.637080 -74.293019 0.000000 0.000000 0.000000 
-0.593287 96.871307 -3.475456 0.000000 0.000000 0.000000 -17.828988 3.463524 0.734870 -19.563987 -3.521272 14.071458 53.717385 0.389984 1.643539 -18.459420 -0.256301 -12.706217 -1.309928 -0.131850 -0.442392 0.000000 0.000000 0.000000 -17.820522 2.892853 0.678321 -11.936312 -4.514452 -16.176497 52.906352 1.808151 0.018739 -23.924269 -6.384100 12.627688 -0.549491 0.384963 0.380605 0.000000 0.000000 0.000000 -17.827101 2.411722 0.282067 19.671582 -1.147318 1.537945 7.539624 0.201868 0.150692 -0.341555 1.712476 1.113343 0.000000 0.000000 0.000000 7.957421 -0.121828 0.268383 -6.279455 0.209250 -1.877214 -19.121958 2.511578 -1.249833 0.000000 0.000000 0.000000 8.630843 -0.111487 0.950421 2.283448 -12.544136 -1.385780 -4.279003 -4.338204 -1.889146 -3.880446 -12.957788 -47.151009 33.274209 -71.690506 35.219741 0.000000 0.000000 0.000000 9.212180 -0.053451 0.399913 7.605184 -5.252828 14.183144 -2.794808 1.325218 -0.409105 -6.179705 16.874635 43.101659 63.333025 84.220057 -61.888604 0.000000 0.000000 0.000000 
-0.572660 97.572899 -3.580185 0.000000 0.000000 0.000000 -18.298859 3.451680 1.042732 -18.833448 -3.482716 13.503939 53.018917 0.479110 1.775850 -18.062521 -0.169167 -12.616655 -1.417020 -0.106045 -0.470720 0.000000 0.000000 0.000000 -18.061030 3.053751 0.977533 -11.220403 -5.017922 -16.356604 51.894432 1.716020 0.113145 -23.675560 -6.619282 12.377986 -0.458281 0.375191 0.447981 0.000000 0.000000 0.000000 -18.443130 2.419363 0.567568 19.599110 -1.646519 1.234293 7.818506 -0.063961 0.090786 -0.814814 1.704007 0.830682 0.000000 0.000000 0.000000 8.548440 -0.415856 0.213584 -2.133727 0.479693 -2.414757 -18.751195 2.627166 -1.631784 0.000000 0.000000 0.000000 8.855573 -0.422958 0.894437 2.153034 -13.759487 0.244260 -3.782668 -4.735901 -2.349091 1.060938 -11.298080 -38.202033 19.499466 -76.079455 21.677683 0.000000 0.000000 0.000000 9.387439 -0.404055 0.483481 6.931957 -4.435760 12.306076 -3.355545 1.700846 -0.449605 0.643819 15.106031 34.739449 -21.372511 86.518676 22.914316 0.000000 0.000000 0.000000 
-0.488636 98.375336 -3.727722 0.000000 0.000000 0.000000 -18.652799 3.448399 1.326043 -18.094827 -3.435281 13.093821 52.020507 0.486800 1.877664 -17.436617 -0.168216 -12.554534 -1.508437 -0.105469 -0.465344 0.000000 0.000000 0.000000 -18.185956 3.204434 1.274150 -10.669199 -5.360145 -16.540461 50.643199 1.669466 0.169344 -23.201239 -6.732062 12.386687 -0.501067 0.401579 0.459798 0.000000 0.000000 0.000000 -18.905142 2.508683 0.803572 19.402846 -2.151866 0.958482 8.118966 -0.443758 0.019357 -0.640036 1.977040 0.499377 0.000000 0.000000 0.000000 8.993021 -0.814988 0.255282 3.173400 0.643340 -2.568495 -17.988734 2.655254 -2.018512 0.000000 0.000000 0.000000 9.098205 -0.825029 0.801969 2.268575 -14.607674 2.077890 -3.346742 -5.197424 -2.533814 5.622620 -8.515823 -28.464308 2.298738 -78.795439 4.397388 0.000000 0.000000 0.000000 9.376990 -0.803899 0.579039 6.238082 -3.408529 10.188585 -3.203963 2.046258 -0.252941 2.989302 11.621355 27.167597 -57.991748 82.028700 59.728590 0.000000 0.000000 0.000000 
-0.300149 99.082420 -4.040207 0.000000 0.000000 0.000000 -18.817113 3.506759 1.486627 -17.577881 -3.461492 12.886546 51.018549 0.408785 1.926601 -16.759539 -0.248524 -12.547494 -1.552236 -0.126161 -0.434849 0.000000 0.000000 0.000000 -18.190455 3.362373 1.446985 -10.314476 -5.485258 -16.662165 49.415841 1.706577 0.159873 -22.723363 -6.687917 12.678990 -0.666918 0.463565 0.427297 0.000000 0.000000 0.000000 -19.071705 2.666318 0.857906 19.257109 -2.543511 0.757033 8.578135 -0.811439 0.023757 -0.085593 2.187028 0.353530 0.000000 0.000000 0.000000 9.306870 -1.187143 0.427856 9.274120 0.699982 -2.483405 -16.851352 2.576006 -2.345261 0.000000 0.000000 0.000000 9.464652 -1.178122 0.719429 2.499187 -14.921783 3.745515 -2.917616 -5.388231 -2.389947 7.148239 -4.773921 -19.630128 -13.122472 -80.245106 -11.352738 0.000000 0.000000 0.000000 9.333880 -1.112275 0.692630 5.555970 -2.409848 8.286881 -2.626070 1.905852 -0.340890 -0.911530 8.534722 21.131185 -71.094141 78.384986 72.902536 0.000000 0.000000 0.000000 
-0.060457 99.447716 -4.427589 0.000000 0.000000 0.000000 -18.801047 3.718997 1.459785 -17.470683 -3.576820 12.886998 50.360935 0.303288 1.900253 -16.293664 -0.366644 -12.521125 -1.569690 -0.159187 -0.390495 0.000000 0.000000 0.000000 -18.136078 3.553427 1.432154 -10.233734 -5.355761 -16.683041 48.588781 1.825933 0.090029 -22.518514 -6.517085 13.151633 -0.848018 0.534602 0.382541 0.000000 0.000000 0.000000 -18.878781 2.905875 0.697441 19.336856 -2.739492 0.626938 9.325251 -1.012276 0.165338 0.629249 1.910991 0.385204 0.000000 0.000000 0.000000 9.701144 -1.413660 0.717697 15.536780 0.614924 -2.344906 -15.425707 2.232552 -2.574767 0.000000 0.000000 0.000000 10.106744 -1.359542 0.726773 2.688615 -14.657624 4.962412 -2.934285 -4.965776 -2.327710 3.241266 -1.063035 -12.831355 -24.551918 -82.038686 -23.198635 0.000000 0.000000 0.000000 9.504405 -1.266254 0.849405 4.971132 -1.602159 7.130981 -1.891019 1.586295 -0.841538 -11.341826 7.456751 17.505389 -87.236016 76.223805 88.979668 0.000000 0.000000 0.000000 
0.175112 99.237434 -4.911438 0.000000 0.000000 0.000000 -18.595808 4.144201 1.246659 -17.969179 -3.763446 13.045675 50.447439 0.224012 1.778876 -16.238247 -0.501308 -12.420616 -1.589139 -0.191702 -0.353063 0.000000 0.000000 0.000000 -18.047098 3.791305 1.208249 -10.566857 -5.008618 -16.636445 48.629861 2.011983 -0.006569 -22.756268 -6.293299 13.626334 -0.969045 0.586220 0.376255 0.000000 0.000000 0.000000 -18.411031 3.190252 0.405992 19.684356 -2.734410 0.559589 10.375701 -1.039878 0.433911 1.373940 1.381839 0.566426 0.000000 0.000000 0.000000 10.427381 -1.427087 1.073340 21.270239 0.343450 -2.206187 -13.765861 1.509242 -2.710204 0.000000 0.000000 0.000000 10.975782 -1.340052 0.857616 2.657771 -13.922830 5.138112 -2.835096 -4.255094 -2.059278 -7.088804 1.733032 -8.858771 -46.527303 -85.477277 -45.553998 0.000000 0.000000 0.000000 10.115670 -1.245697 1.031873 4.639082 -1.046339 7.328179 -1.299563 1.212003 -1.581415 -26.304652 8.293846 17.686739 -107.331382 74.276627 109.136847 0.000000 0.000000 0.000000 
